<?xml version="1.0" encoding="UTF-8" standalone="no"?>
<svg
   xmlns:dc="http://purl.org/dc/elements/1.1/"
   xmlns:cc="http://creativecommons.org/ns#"
   xmlns:rdf="http://www.w3.org/1999/02/22-rdf-syntax-ns#"
   xmlns:svg="http://www.w3.org/2000/svg"
   xmlns="http://www.w3.org/2000/svg"
   xmlns:sodipodi="http://sodipodi.sourceforge.net/DTD/sodipodi-0.dtd"
   xmlns:inkscape="http://www.inkscape.org/namespaces/inkscape"
   inkscape:version="1.0rc1 (09960d6f05, 2020-04-09)"
   sodipodi:docname="icon.svg"
   id="svg14"
   version="1.1"
   viewBox="0 0 600 600"
   height="120"
   width="120">
  <metadata
     id="metadata20">
    <rdf:RDF>
      <cc:Work
         rdf:about="">
        <dc:format>image/svg+xml</dc:format>
        <dc:type
           rdf:resource="http://purl.org/dc/dcmitype/StillImage" />
        <dc:title></dc:title>
      </cc:Work>
    </rdf:RDF>
  </metadata>
  <defs
     id="defs18" />
  <sodipodi:namedview
     inkscape:current-layer="svg14"
     inkscape:window-maximized="0"
     inkscape:window-y="80"
     inkscape:window-x="214"
     inkscape:cy="57.184959"
     inkscape:cx="76.088422"
     inkscape:zoom="3.1"
     showgrid="false"
     id="namedview16"
     inkscape:window-height="831"
     inkscape:window-width="1589"
     inkscape:pageshadow="2"
     inkscape:pageopacity="0"
     guidetolerance="10"
     gridtolerance="10"
     objecttolerance="10"
     borderopacity="1"
     bordercolor="#666666"
     pagecolor="#ffffff" />
  <g
     id="g1099">
    <g
       transform="matrix(17.744948,0,0,17.744948,24.082252,-18088.73)"
       id="g12"
       style="stroke-width:0.0563541">
      <path
         fill="#ffffff"
         d="m 9.438026,1028.8623 h 13.124968 c 0.519383,0 0.937515,0.4181 0.937515,0.9375 v 13.125 c 0,0.5194 -0.418132,0.9375 -0.937515,0.9375 H 9.438026 c -0.519383,0 -0.937515,-0.4181 -0.937515,-0.9375 v -13.125 c 0,-0.5194 0.418132,-0.9375 0.937515,-0.9375 z"
         id="path2"
         inkscape:connector-curvature="0"
         style="stroke-width:0.00317578" />
      <path
         id="path6"
         style="line-height:normal;text-indent:0;text-align:start;text-decoration:none;text-decoration-line:none;text-decoration-style:solid;text-decoration-color:#000000;text-transform:none;isolation:auto;mix-blend-mode:normal;fill:#3d3d3d;fill-opacity:1;stroke-width:0.0563541"
         d="m 12.5,3 v 3 h -1 C 11.223869,6 11.000028,6.2239 11,6.5 V 8 H 9.4375 C 8.649785,8 8,8.6497 8,9.4375 V 11 H 6.5 C 6.2238691,11 6.0000276,11.2239 6,11.5 v 1 H 3 v 1 h 3 v 1 H 3 v 1 h 3 v 1 H 3 v 1 h 3 v 1 H 3 v 1 h 3 v 1 c 2.76e-5,0.2761 0.2238691,0.5 0.5,0.5 H 8 v 1.5625 C 8,23.3502 8.649785,24 9.4375,24 H 11 v 1.5 c 2.8e-5,0.2761 0.223869,0.5 0.5,0.5 h 1 v 3 h 1 v -3 h 1 v 3 h 1 v -3 h 1 v 3 h 1 v -3 h 1 v 3 h 1 v -3 h 1 c 0.276131,0 0.499972,-0.2239 0.5,-0.5 V 24 h 1.5625 C 23.350214,24 24,23.3502 24,22.5625 V 21 h 1.507812 C 25.99998,21.018 26,20.496094 26,20.496094 V 19.5 h 3 v -1 h -3 v -1 h 3 v -1 h -3 v -1 h 3 v -1 h -3 v -1 h 3 v -1 h -3 v -1 C 25.999972,11.2239 25.776131,11 25.5,11 H 24 V 9.4375 C 24,8.6497 23.350214,8 22.5625,8 H 20.992188 L 20.970703,6.4375 C 20.974903,5.9985 20.5,6.0019531 20.5,6.0019531 v -0.00977 h -1 V 3 h -1 v 2.9941406 h -1 V 3 h -1 v 2.9960938 h -1 V 3 h -1 v 2.9980469 h -1 V 3 Z M 12,7 h 8 V 8 H 12 Z M 9.4375,9 h 13.125 C 22.813551,9 23,9.1864 23,9.4375 v 13.125 C 23,22.8135 22.813551,23 22.5625,23 H 9.4375 C 9.186448,23 9,22.8135 9,22.5625 V 9.4375 C 9,9.1864 9.186448,9 9.4375,9 Z M 7,12 h 1 v 8 H 7 Z m 17,0 h 1 v 8 H 24 Z M 12,24 h 8 v 1 h -8 z"
         transform="translate(0,1020.362)"
         inkscape:connector-curvature="0" />
    </g>
    <g
       aria-label="IOC"
       id="text847"
       style="font-style:normal;font-variant:normal;font-weight:900;font-stretch:ultra-condensed;font-size:9.27809px;line-height:1.25;font-family:'Fira Sans Extra Condensed';-inkscape-font-specification:'Fira Sans Extra Condensed, Heavy Ultra-Condensed';font-variant-ligatures:normal;font-variant-caps:normal;font-variant-numeric:normal;font-variant-east-asian:normal;letter-spacing:0px;word-spacing:0px;fill:#4682b4;fill-opacity:1;stroke:none;stroke-width:0.0145811;stroke-miterlimit:7;stroke-dasharray:none;stroke-opacity:1"
       transform="matrix(18.848808,0,0,17.744948,2.2614173,19.460422)">
      <path
         d="m 11.965511,15.212848 v 6.457551 h -1.837062 v -6.457551 z"
         style="font-style:normal;font-variant:normal;font-weight:900;font-stretch:ultra-condensed;font-size:9.27809px;font-family:'Fira Sans Extra Condensed';-inkscape-font-specification:'Fira Sans Extra Condensed, Heavy Ultra-Condensed';font-variant-ligatures:normal;font-variant-caps:normal;font-variant-numeric:normal;font-variant-east-asian:normal;fill:#4682b4;fill-opacity:1;stroke:none;stroke-width:0.0145811;stroke-miterlimit:7;stroke-dasharray:none;stroke-opacity:1"
         id="path872"
         inkscape:connector-curvature="0" />
      <path
         d="m 14.934497,15.027287 q 2.560753,0 2.560753,3.405058 0,1.688613 -0.649467,2.560753 -0.649466,0.862863 -1.911286,0.862863 -1.26182,0 -1.911286,-0.853585 -0.640189,-0.862862 -0.640189,-2.570031 0,-1.679334 0.640189,-2.542196 0.649466,-0.862862 1.911286,-0.862862 z m 0,1.30821 q -0.250508,0 -0.38968,0.204118 -0.139171,0.19484 -0.204118,0.640188 -0.05567,0.445349 -0.05567,1.252542 0,0.835029 0.05567,1.289655 0.05567,0.445348 0.19484,0.640188 0.139171,0.19484 0.398958,0.19484 0.269065,0 0.408236,-0.19484 0.139171,-0.19484 0.19484,-0.640188 0.05567,-0.445348 0.05567,-1.289655 0,-0.797915 -0.06495,-1.243264 -0.05567,-0.454626 -0.204118,-0.649466 -0.139172,-0.204118 -0.38968,-0.204118 z"
         style="font-style:normal;font-variant:normal;font-weight:900;font-stretch:ultra-condensed;font-size:9.27809px;font-family:'Fira Sans Extra Condensed';-inkscape-font-specification:'Fira Sans Extra Condensed, Heavy Ultra-Condensed';font-variant-ligatures:normal;font-variant-caps:normal;font-variant-numeric:normal;font-variant-east-asian:normal;fill:#4682b4;fill-opacity:1;stroke:none;stroke-width:0.0145811;stroke-miterlimit:7;stroke-dasharray:none;stroke-opacity:1"
         id="path874"
         inkscape:connector-curvature="0" />
      <path
         d="m 20.408561,15.027287 q 1.057702,0 1.827784,0.751525 l -0.82575,0.983477 q -0.222674,-0.19484 -0.426792,-0.296899 -0.19484,-0.111337 -0.417514,-0.111337 -0.436071,0 -0.649467,0.482461 -0.204118,0.482461 -0.204118,1.586553 0,1.094815 0.204118,1.577276 0.213396,0.473182 0.640188,0.473182 0.250509,0 0.445349,-0.102059 0.204118,-0.111337 0.510295,-0.361845 l 0.779359,0.964921 q -0.361845,0.38968 -0.844306,0.640188 -0.482461,0.241231 -1.076258,0.241231 -1.178318,0 -1.874174,-0.862863 -0.686579,-0.87214 -0.686579,-2.570031 0,-1.104092 0.324733,-1.864896 0.324733,-0.760803 0.909253,-1.141205 0.584519,-0.389679 1.363879,-0.389679 z"
         style="font-style:normal;font-variant:normal;font-weight:900;font-stretch:ultra-condensed;font-size:9.27809px;font-family:'Fira Sans Extra Condensed';-inkscape-font-specification:'Fira Sans Extra Condensed, Heavy Ultra-Condensed';font-variant-ligatures:normal;font-variant-caps:normal;font-variant-numeric:normal;font-variant-east-asian:normal;fill:#4682b4;fill-opacity:1;stroke:none;stroke-width:0.0145811;stroke-miterlimit:7;stroke-dasharray:none;stroke-opacity:1"
         id="path876"
         inkscape:connector-curvature="0" />
    </g>
    <path
       id="rect857"
       style="opacity:1;fill:#daa520;fill-rule:evenodd;stroke:none;stroke-width:0.266668;stroke-linecap:round;stroke-linejoin:round;stroke-miterlimit:7;stroke-dasharray:none;stroke-opacity:1;paint-order:stroke markers fill"
       d="m 193.19386,187.4018 v 84.62603 H 422.80898 V 187.4018 Z m 44.8305,14.45653 h 11.40619 c 3.44447,0 6.41913,0.70412 8.92759,2.1133 2.54592,1.3566 4.57713,4.01678 6.11216,7.98295 1.57256,3.96621 2.35825,9.59896 2.35825,16.90507 0,10.17644 -1.48064,17.29559 -4.47583,21.36615 -2.99518,4.07055 -7.1485,6.10462 -12.46495,6.10462 h -11.86341 z m 59.8222,0 h 22.28292 l -1.13107,10.73337 h -10.03453 v 10.86754 h 8.8554 v 10.49862 h -8.8554 v 11.50479 h 10.70833 v 10.86761 h -21.82576 z m 49.90798,0 h 11.11737 l 4.45177,43.5373 3.80208,-43.5373 h 10.85269 l -7.45971,54.47193 h -14.67883 z m -98.61277,10.90109 v 32.63621 h 1.34773 c 1.27284,0 2.27252,-0.51815 2.98388,-1.50974 0.7114,-0.99159 1.2166,-2.64927 1.51613,-4.99769 0.33698,-2.40046 0.50538,-5.7497 0.50538,-10.029 0,-4.27932 -0.16858,-7.5651 -0.50538,-9.86131 -0.29936,-2.29609 -0.80473,-3.89063 -1.51613,-4.83 -0.67395,-0.93941 -1.61727,-1.40859 -2.81545,-1.40859 z"
       inkscape:connector-curvature="0" />
  </g>
</svg>
